<?xml version="1.0" standalone="no"?>
<!DOCTYPE svg PUBLIC "-//W3C//DTD SVG 20010904//EN"
 "http://www.w3.org/TR/2001/REC-SVG-20010904/DTD/svg10.dtd">
<svg version="1.0" xmlns="http://www.w3.org/2000/svg"
 width="320.000000pt" height="213.000000pt" viewBox="0 0 320.000000 213.000000"
 preserveAspectRatio="xMidYMid meet">

<g transform="translate(0.000000,213.000000) scale(0.100000,-0.100000)"
fill="#000000" stroke="none">
<path d="M0 1065 l0 -1065 1600 0 1600 0 0 1065 0 1065 -1600 0 -1600 0 0
-1065z m1290 757 c73 -36 70 -8 70 -755 0 -714 0 -707 -50 -752 -21 -19 -36
-20 -531 -20 l-509 0 -32 33 -33 32 -3 688 c-2 639 -1 689 15 722 36 71 31 70
563 70 432 0 478 -2 510 -18z m420 -271 c32 -23 39 -61 12 -61 -11 0 -26 10
-34 21 -17 27 -66 29 -85 3 -18 -25 -16 -84 4 -106 22 -25 69 -24 83 2 14 26
50 27 50 1 0 -47 -97 -79 -151 -51 -27 15 -49 63 -49 107 0 92 95 138 170 84z
m1095 15 c31 -13 55 -41 55 -65 0 -19 -31 -12 -61 14 -35 29 -67 22 -87 -19
-10 -20 -11 -34 -2 -60 16 -50 62 -62 95 -26 21 24 55 26 55 5 0 -9 -11 -27
-25 -40 -31 -32 -100 -35 -138 -5 -51 40 -57 120 -13 169 37 41 69 48 121 27z
m-665 -35 c0 -13 8 -21 23 -23 27 -4 30 -33 2 -33 -16 0 -21 -8 -23 -42 -3
-37 0 -42 20 -45 29 -4 30 -32 1 -36 -44 -6 -63 14 -63 67 0 34 -5 51 -15 55
-8 3 -15 12 -15 21 0 8 7 15 15 15 8 0 15 9 15 20 0 13 7 20 20 20 13 0 20 -7
20 -19z m-328 -78 c3 -54 5 -58 28 -58 23 0 25 4 28 58 3 53 5 57 28 57 25 0
25 -1 22 -77 -3 -72 -5 -78 -25 -81 -14 -2 -23 2 -23 9 0 10 -3 10 -12 1 -7
-7 -24 -12 -38 -12 -40 0 -50 18 -50 92 0 61 2 68 20 68 16 0 19 -8 22 -57z
m242 35 c14 -23 0 -35 -24 -20 -22 14 -50 16 -50 4 0 -4 19 -16 43 -27 23 -11
44 -28 45 -38 10 -52 -90 -80 -123 -34 -15 21 -14 22 6 25 12 2 26 -1 32 -7
15 -15 37 -14 37 3 0 8 -12 17 -27 21 -16 4 -34 11 -40 17 -17 13 -17 50 -1
66 18 18 89 11 102 -10z m286 -5 c44 -56 5 -133 -67 -133 -70 0 -107 77 -62
134 16 21 29 26 64 26 36 0 47 -5 65 -27z m168 15 c9 -8 16 -8 24 0 7 7 27 12
45 12 42 0 53 -21 53 -99 0 -54 -2 -61 -20 -61 -17 0 -20 7 -20 48 0 55 -10
75 -36 70 -16 -3 -20 -14 -22 -61 -3 -53 -5 -57 -27 -57 -22 0 -24 4 -27 57
-2 47 -6 58 -22 61 -26 5 -36 -15 -36 -70 0 -41 -3 -48 -20 -48 -18 0 -20 7
-20 79 l0 78 57 1 c32 0 64 -4 71 -10z m429 -37 c7 -24 14 -46 17 -48 2 -2 12
18 21 46 14 43 21 51 41 51 13 0 24 -1 24 -3 0 -1 -13 -36 -29 -77 -26 -69
-31 -75 -56 -75 -26 0 -31 6 -57 78 l-28 78 27 -3 c23 -2 29 -10 40 -47z
m-497 -376 l64 -65 -30 -42 c-26 -38 -35 -43 -73 -46 -61 -5 -71 8 -71 89 l0
69 -155 0 -155 0 0 -305 0 -305 229 0 230 0 5 52 c4 29 7 78 9 108 2 49 5 55
25 58 22 3 22 2 22 -117 0 -173 22 -161 -293 -161 -245 0 -255 1 -273 21 -21
23 -21 31 -16 452 2 202 3 218 22 237 19 19 33 20 208 20 l188 0 64 -65z m216
-6 c40 -24 41 -31 13 -75 l-21 -34 -26 20 c-71 53 -68 47 -46 72 19 23 36 38
43 38 2 0 19 -9 37 -21z m-62 -103 c17 -14 26 -30 23 -38 -11 -26 -223 -322
-233 -325 -5 -2 -24 9 -41 24 l-32 28 117 168 c64 92 121 167 127 167 5 -1 23
-11 39 -24z m72 -80 c7 -17 -95 -166 -113 -166 -30 0 -21 32 29 103 52 75 73
91 84 63z m-320 -41 c14 -36 -14 -45 -136 -45 -123 0 -148 8 -134 44 9 23 261
24 270 1z m-85 -111 c32 -39 -37 -64 -138 -49 -44 6 -61 28 -42 51 17 21 162
19 180 -2z m70 -135 c38 -27 37 -40 -11 -66 -34 -20 -70 -30 -70 -20 0 21 33
107 41 107 6 0 24 -9 40 -21z"/>
<path d="M473 1618 c-29 -32 -36 -61 -24 -104 13 -46 48 -84 77 -84 46 0 94
87 80 144 -16 64 -92 89 -133 44z m88 -58 c45 -25 7 -119 -43 -107 -47 12 -62
99 -20 110 30 8 43 7 63 -3z"/>
<path d="M406 1389 c-38 -30 -31 -57 24 -87 64 -34 161 -29 213 11 32 24 35
30 26 51 -19 41 -75 57 -124 34 -19 -9 -28 -9 -37 0 -19 19 -73 14 -102 -9z"/>
<path d="M820 1330 c0 -19 7 -20 200 -20 193 0 200 1 200 20 0 19 -7 20 -200
20 -193 0 -200 -1 -200 -20z"/>
<path d="M351 1156 c-28 -34 6 -36 440 -34 416 3 424 3 424 23 0 20 -8 20
-426 23 -352 2 -428 0 -438 -12z"/>
<path d="M343 874 c-3 -8 -1 -20 4 -25 5 -5 177 -8 434 -7 416 3 424 3 424 23
0 20 -8 20 -428 23 -382 2 -428 1 -434 -14z"/>
<path d="M342 583 c3 -17 30 -18 393 -18 363 0 390 1 393 18 3 16 -21 17 -393
17 -372 0 -396 -1 -393 -17z"/>
<path d="M345 460 c-16 -26 15 -30 251 -30 228 0 245 1 242 18 -3 16 -24 17
-245 20 -156 1 -244 -1 -248 -8z"/>
<path d="M2256 1467 c-12 -9 -17 -23 -14 -42 3 -26 7 -30 33 -30 26 0 30 4 33
32 4 39 -24 60 -52 40z"/>
<path d="M2390 1022 c0 -27 4 -32 25 -32 14 0 25 4 25 8 0 5 -11 19 -25 32
l-25 23 0 -31z"/>
</g>
</svg>
